<?xml version="1.0" encoding="UTF-8"?>
<!DOCTYPE svg PUBLIC "-//W3C//DTD SVG 1.1//EN" "http://www.w3.org/Graphics/SVG/1.1/DTD/svg11.dtd">
<!-- Creator: CorelDRAW X5 -->
<svg xmlns="http://www.w3.org/2000/svg" xml:space="preserve" width="6.72in" height="6.72in" style="shape-rendering:geometricPrecision; text-rendering:geometricPrecision; image-rendering:optimizeQuality; fill-rule:evenodd; clip-rule:evenodd"
viewBox="0 0 6720 6720"
 xmlns:xlink="http://www.w3.org/1999/xlink">
 <defs>
  <style type="text/css">
   <![CDATA[
    .fil1 {fill:none}
    .fil0 {fill:black;fill-rule:nonzero}
   ]]>
  </style>
 </defs>
 <g id="Layer_x0020_1">
  <metadata id="CorelCorpID_0Corel-Layer"/>
  <path class="fil0" d="M1547 800l3104 0c22,0 42,9 57,24l522 522 0 0c16,16 23,36 23,57l0 0 0 4438c0,44 -36,80 -80,80l-3626 0c-44,0 -80,-36 -80,-80l0 -4960c0,-44 36,-80 80,-80zm3071 160l-2991 0 0 4800 3466 0 0 -4325 -475 -475z"/>
  <path class="fil0" d="M2127 1614c-44,0 -80,36 -80,80 0,44 36,80 80,80l1881 0c44,0 80,-36 80,-80 0,-44 -36,-80 -80,-80l-1881 0z"/>
  <path class="fil0" d="M2127 2447c-44,0 -80,36 -80,80 0,44 36,80 80,80l2270 0c44,0 80,-36 80,-80 0,-44 -36,-80 -80,-80l-2270 0z"/>
  <path class="fil0" d="M2127 3280c-44,0 -80,36 -80,80 0,44 36,80 80,80l2467 0c44,0 80,-36 80,-80 0,-44 -36,-80 -80,-80l-2467 0z"/>
  <path class="fil0" d="M2127 4113c-44,0 -80,36 -80,80 0,44 36,80 80,80l2467 0c44,0 80,-36 80,-80 0,-44 -36,-80 -80,-80l-2467 0z"/>
  <path class="fil0" d="M2127 4946c-44,0 -80,36 -80,80 0,44 36,80 80,80l2467 0c44,0 80,-36 80,-80 0,-44 -36,-80 -80,-80l-2467 0z"/>
  <path class="fil0" d="M4621 800l29 0c22,0 42,9 57,24l522 522 0 0c16,16 23,36 23,57l0 0 0 52c0,44 -36,80 -80,80l-552 0c-44,0 -80,-36 -80,-80l0 -574c0,-44 36,-80 80,-80zm411 574l-331 -331 0 331 331 0z"/>
 </g>
 <rect class="fil1" width="6720" height="6720"/>
</svg>
